<svg version="1.1" id="Layer_1" xmlns="http://www.w3.org/2000/svg" xmlns:xlink="http://www.w3.org/1999/xlink" x="0px" y="0px"
	 width="100%" viewBox="0 7 600 50" xml:space="preserve" preserveAspectRatio="xMinYMin meet">
<path stroke="none"
	d="
M0.000000,28.000000 
	C0.000000,21.312355 0.000000,14.624711 0,7.466478 
	C201.615005,6.997260 401.307495,6.998630 601.000000,7.000000 
	C601.000000,14.687576 601.000000,22.375153 600.543518,30.480301 
	C591.755371,31.405464 583.861877,29.653816 576.243103,26.108343 
	C571.511292,31.653450 565.638794,32.759995 558.786011,31.315508 
	C552.217590,29.930958 547.303833,26.068110 542.453796,21.843096 
	C538.362488,18.279062 534.066589,14.949986 529.389099,11.131496 
	C527.796631,26.310938 520.868896,36.786545 507.750916,41.679855 
	C491.880981,47.599705 478.877991,41.579544 468.140808,29.192009 
	C466.693176,36.707779 462.965057,43.359280 455.757019,44.491531 
	C446.272400,45.981388 436.055481,46.641632 427.190063,41.358383 
	C420.511414,37.378315 414.413300,32.424099 407.984772,27.852322 
	C407.984772,28.284992 408.055908,29.210909 407.973511,30.122953 
	C407.331055,37.233395 401.283264,44.263603 394.756409,44.808609 
	C383.365631,45.759762 372.240601,44.517269 362.602325,37.765869 
	C356.839966,33.729462 351.619751,28.919149 346.084442,24.398399 
	C341.755768,34.975155 334.032715,41.410801 322.022858,40.782032 
	C310.870056,40.198139 304.155640,33.358360 300.436432,23.010761 
	C290.779053,33.213985 279.021393,38.075985 265.618286,36.614346 
	C252.865097,35.223583 240.608475,31.553129 233.351059,18.936131 
	C228.194366,31.464226 217.674820,36.068256 206.008072,37.638760 
	C189.907669,39.806103 177.315674,32.877289 168.208832,19.395933 
	C152.035156,45.061867 117.434280,48.396305 97.329140,21.380962 
	C94.928894,32.651016 86.073044,39.704689 74.562737,39.918869 
	C64.453865,40.106972 56.634666,35.273693 49.623676,28.850914 
	C45.290882,24.881632 41.492729,20.328743 37.283035,15.855593 
	C36.691719,16.833254 36.297028,17.534143 35.857330,18.205559 
	C29.373831,28.105818 18.499109,32.574711 7.453786,29.842535 
	C5.283401,29.305670 3.150298,28.618076 1.000000,28.000000 
z"/>
</svg>